HIERARCHY
ROOT Hips
{
	OFFSET 55.310501 45.591206 43.872097
	CHANNELS 6 Xposition Yposition Zposition Zrotation Xrotation Yrotation
	JOINT Chest
	{
		OFFSET -0.153500 1.163101 7.852402
		CHANNELS 6 Xposition Yposition Zposition Zrotation Xrotation Yrotation
		JOINT Chest2
		{
			OFFSET 0.000000 0.000000 3.343300
			CHANNELS 6 Xposition Yposition Zposition Zrotation Xrotation Yrotation
			JOINT Neck
			{
				OFFSET 0.000000 0.000000 7.785500
				CHANNELS 6 Xposition Yposition Zposition Zrotation Xrotation Yrotation
				JOINT Head
				{
					OFFSET 0.000000 0.000000 2.173901
					CHANNELS 6 Xposition Yposition Zposition Zrotation Xrotation Yrotation
					End Site
					{
						OFFSET 0.000000 0.000000 10.528198
					}
				}
			}
			JOINT LeftCollar
			{
				OFFSET 2.676300 -1.652401 4.938301
				CHANNELS 6 Xposition Yposition Zposition Zrotation Xrotation Yrotation
				JOINT LeftShoulder
				{
					OFFSET 4.299000 0.000000 0.000000
					CHANNELS 6 Xposition Yposition Zposition Zrotation Xrotation Yrotation
					JOINT LeftElbow
					{
						OFFSET 0.000000 0.000000 -10.245102
						CHANNELS 6 Xposition Yposition Zposition Zrotation Xrotation Yrotation
						JOINT LeftWrist
						{
							OFFSET 0.000000 0.000000 -12.703300
							CHANNELS 6 Xposition Yposition Zposition Zrotation Xrotation Yrotation
							End Site
							{
								OFFSET 0.000000 0.000000 -2.173901
							}
						}
					}
				}
			}
			JOINT RightCollar
			{
				OFFSET -2.534599 -1.686401 5.195000
				CHANNELS 6 Xposition Yposition Zposition Zrotation Xrotation Yrotation
				JOINT RightShoulder
				{
					OFFSET -4.144100 0.000000 0.000000
					CHANNELS 6 Xposition Yposition Zposition Zrotation Xrotation Yrotation
					JOINT RightElbow
					{
						OFFSET 0.000000 0.000000 -10.116501
						CHANNELS 6 Xposition Yposition Zposition Zrotation Xrotation Yrotation
						JOINT RightWrist
						{
							OFFSET 0.000000 0.000000 -12.937801
							CHANNELS 6 Xposition Yposition Zposition Zrotation Xrotation Yrotation
							End Site
							{
								OFFSET 0.000000 0.000000 -2.173901
							}
						}
					}
				}
			}
		}
	}
	JOINT LeftHip
	{
		OFFSET 2.175598 0.064499 -2.662899
		CHANNELS 6 Xposition Yposition Zposition Zrotation Xrotation Yrotation
		JOINT LeftKnee
		{
			OFFSET 0.000000 -0.000004 -18.585800
			CHANNELS 6 Xposition Yposition Zposition Zrotation Xrotation Yrotation
			JOINT LeftAnkle
			{
				OFFSET 0.000000 0.000000 -18.979500
				CHANNELS 6 Xposition Yposition Zposition Zrotation Xrotation Yrotation
				End Site
				{
					OFFSET 0.000000 -9.264000 0.000000
				}
			}
		}
	}
	JOINT RightHip
	{
		OFFSET -2.092400 -0.058102 -2.581200
		CHANNELS 6 Xposition Yposition Zposition Zrotation Xrotation Yrotation
		JOINT RightKnee
		{
			OFFSET 0.000000 -0.000004 -18.665001
			CHANNELS 6 Xposition Yposition Zposition Zrotation Xrotation Yrotation
			JOINT RightAnkle
			{
				OFFSET 0.000000 0.000000 -18.566601
				CHANNELS 6 Xposition Yposition Zposition Zrotation Xrotation Yrotation
				End Site
				{
					OFFSET 0.000000 -8.497601 0.000000
				}
			}
		}
	}
}
MOTION
Frames: 6
Frame Time: 0.041667
66.789597 48.617607 44.500992 879.504772 -1.268314 0.037196 -0.153507 1.163108 7.852402 19.471473 6.164999 9.954025 0.000019 -0.000000 3.343293 -17.614160 -5.269403 -2.165137 0.000003 0.000003 7.785506 -53.505899 -13.206305 2.882355 -0.000006 -0.000005 2.173900 -6.949000 -7.456967 -6.997695 2.676297 -1.652400 4.938300 -7.890055 8.268181 -7.541754 4.298996 0.000010 -0.000004 -7.673641 26.108984 -51.240332 0.000001 0.000007 -10.245100 -7.789964 720.956410 -0.040424 -0.000010 0.000003 -12.703303 1313.859560 -189.222372 534.496180 -2.534599 -1.686399 5.195007 -5.857695 0.293250 -2.777687 -4.144102 0.000003 -0.000002 52.902523 -33.592387 148.050702 -0.000007 -0.000001 -10.116476 -72.086862 -7.081430 -7.111746 0.000008 -0.000000 -12.937805 -17.961226 -367.014286 10.357077 2.175591 0.064491 -2.662903 -338.541058 -15.460167 -13.305271 -0.000005 0.000004 -18.585806 141.292094 -234.219044 -160.300018 0.000004 0.000008 -18.979509 415.248071 30.862159 -148.802228 -2.092397 -0.058103 -2.581207 366.126253 4.882183 1.048877 -0.000002 -0.000007 -18.665001 -1111.004581 16.162362 -6.357082 0.000005 -0.000000 -18.566603 741.143226 19.623835 13.525164
66.804100 48.591499 44.471996 879.784045 -0.945015 0.029217 -0.153508 1.163103 7.852401 19.206927 5.859005 9.783247 0.000011 -0.000001 3.343296 -17.569571 -5.230630 -2.171602 0.000001 -0.000000 7.785503 -53.236335 -13.397992 2.987597 -0.000001 0.000011 2.173903 -6.973469 -7.475025 -6.965372 2.676294 -1.652395 4.938295 -7.675184 8.006577 -7.396546 4.299003 0.000008 -0.000015 -7.802355 26.235672 -51.007235 -0.000007 0.000008 -10.245101 -7.757713 720.854176 0.024931 -0.000003 -0.000007 -12.703292 1313.806011 -189.183891 534.362746 -2.534594 -1.686395 5.195003 -5.601797 0.502905 -2.512894 -4.144097 -0.000002 -0.000010 52.931207 -34.008366 148.279172 0.000000 -0.000008 -10.116501 -72.676539 -7.063103 -7.319636 0.000006 0.000000 -12.937809 -17.320919 -366.915659 10.463476 2.175594 0.064497 -2.662894 -335.566238 -17.923087 -11.344655 -0.000008 -0.000008 -18.585800 137.472884 -236.369078 -158.931576 -0.000004 0.000002 -18.979511 415.614170 30.900961 -149.012598 -2.092396 -0.058097 -2.581200 366.163054 4.648394 1.042820 -0.000004 -0.000001 -18.665005 -1111.188395 16.038695 -6.452595 0.000004 -0.000005 -18.566603 741.089786 19.515298 13.558445
66.810799 48.562603 44.446198 880.083316 -0.605309 0.018803 -0.153511 1.163101 7.852401 18.924794 5.525207 9.618821 0.000004 0.000006 3.343304 -17.543312 -5.180744 -2.180584 -0.000006 0.000000 7.785502 -52.965494 -13.589380 3.119621 -0.000004 0.000009 2.173903 -7.004778 -7.488584 -6.949486 2.676286 -1.652403 4.938300 -7.523372 7.788344 -7.227512 4.298999 0.000005 0.000010 -7.809791 26.326501 -50.781937 -0.000014 0.000002 -10.245110 -7.624274 720.855105 0.102452 -0.000003 -0.000001 -12.703306 1313.543732 -189.070469 534.415639 -2.534603 -1.686404 5.195003 -5.302056 0.753788 -2.240434 -4.144106 0.000008 -0.000004 53.061660 -34.351146 148.530619 0.000012 0.000010 -10.116501 -73.165526 -7.072865 -7.371456 0.000006 -0.000009 -12.937793 -16.512045 -366.951613 10.641144 2.175586 0.064499 -2.662903 -332.700372 -20.190104 -9.220363 -0.000004 -0.000006 -18.585806 133.298819 -238.294481 -157.017866 0.000002 0.000007 -18.979504 416.124002 30.972883 -149.209936 -2.092403 -0.058101 -2.581202 366.191904 4.385939 1.038173 -0.000008 0.000002 -18.665007 -1111.341391 15.904275 -6.553640 0.000015 -0.000003 -18.566605 740.930889 19.447958 13.710065
66.812798 48.534409 44.421494 880.313576 -0.284641 0.008928 -0.153509 1.163097 7.852406 18.704529 5.247216 9.454365 -0.000011 0.000002 3.343300 -17.518392 -5.163448 -2.190352 0.000009 0.000002 7.785500 -52.711756 -13.770969 3.222823 0.000004 -0.000003 2.173901 -7.037947 -7.472828 -6.942502 2.676302 -1.652399 4.938298 -7.272576 7.487615 -7.076781 4.299006 0.000008 0.000006 -7.900349 26.525251 -50.578661 -0.000004 0.000009 -10.245099 -7.475781 720.748008 0.062756 -0.000006 -0.000001 -12.703297 1313.271290 -189.140629 534.419901 -2.534594 -1.686404 5.194997 -5.119274 0.925122 -1.994741 -4.144098 0.000001 -0.000015 53.248592 -34.626669 148.674886 0.000017 -0.000001 -10.116488 -73.482228 -7.122020 -7.420174 0.000005 -0.000001 -12.937809 -16.077511 -366.894403 10.582251 2.175581 0.064481 -2.662895 -329.979225 -22.178799 -7.056797 -0.000003 -0.000009 -18.585808 128.932634 -239.899138 -154.599720 -0.000004 -0.000000 -18.979511 416.857838 31.035693 -149.485821 -2.092406 -0.058113 -2.581189 366.285423 4.142175 1.023921 0.000000 -0.000005 -18.665001 -1111.421605 15.745201 -6.662062 0.000007 -0.000009 -18.566601 740.671724 19.388945 13.929856
66.811096 48.505306 44.397297 880.473020 0.000007 -0.000010 -0.153500 1.163094 7.852407 18.557895 4.983951 9.306437 -0.000000 -0.000002 3.343295 -17.447215 -5.155955 -2.187750 0.000005 0.000000 7.785497 -52.520753 -13.886350 3.358541 0.000001 0.000002 2.173903 -7.078579 -7.464710 -6.974416 2.676297 -1.652399 4.938301 -7.196039 7.388155 -6.821938 4.299003 0.000006 -0.000006 -7.938615 26.556547 -50.332699 -0.000004 0.000009 -10.245108 -7.418102 720.822102 -0.010234 0.000000 0.000006 -12.703296 1313.127036 -189.138416 534.502628 -2.534601 -1.686396 5.195004 -4.901724 1.133553 -1.751684 -4.144095 0.000001 -0.000004 53.320589 -34.920565 148.792775 0.000012 0.000005 -10.116488 -73.676943 -7.187101 -7.472535 0.000017 -0.000002 -12.937804 -15.793011 -366.902982 10.489700 2.175588 0.064487 -2.662890 -327.385802 -23.921028 -4.862779 -0.000002 -0.000008 -18.585804 124.841665 -241.294409 -152.143256 0.000003 0.000008 -18.979506 417.677679 31.141845 -149.791526 -2.092396 -0.058107 -2.581198 366.424923 3.929841 0.997180 -0.000005 -0.000010 -18.665007 -1111.324999 15.569543 -6.777794 -0.000000 -0.000008 -18.566605 740.283168 19.292841 14.040886
66.807999 48.477600 44.374092 880.644703 0.334751 -0.010652 -0.153501 1.163104 7.852396 18.391375 4.697760 9.196641 -0.000004 0.000003 3.343302 -17.325417 -5.164528 -2.171145 0.000004 -0.000004 7.785507 -52.420131 -13.972078 3.473404 0.000003 0.000012 2.173901 -7.095947 -7.441408 -6.998978 2.676292 -1.652398 4.938294 -7.123288 7.357193 -6.565177 4.298994 0.000002 -0.000008 -7.959878 26.699232 -50.307366 -0.000000 0.000015 -10.245103 -7.478552 720.846909 -0.016605 -0.000005 -0.000001 -12.703304 1313.146160 -189.124045 534.785070 -2.534610 -1.686404 5.195003 -4.735631 1.270858 -1.529287 -4.144089 0.000002 -0.000006 53.256973 -35.143106 148.797092 0.000016 -0.000010 -10.116503 -73.787094 -7.258044 -7.505026 0.000007 0.000007 -12.937819 -15.635710 -366.992648 10.327104 2.175598 0.064484 -2.662905 -324.875571 -25.516417 -2.615932 0.000000 0.000004 -18.585800 120.825719 -242.414670 -149.493430 -0.000005 0.000006 -18.979517 418.650817 31.251879 -150.194466 -2.092400 -0.058105 -2.581201 366.546118 3.668913 0.970384 -0.000005 -0.000008 -18.665003 -1111.103810 15.379006 -6.902799 0.000012 -0.000011 -18.566601 739.785275 19.180667 14.096062
